<svg version="1" xmlns="http://www.w3.org/2000/svg" width="933.333" height="933.333" viewBox="0 0 700.000000 700.000000"><path d="M294 1.6c-15 3.9-21.4 10-21.7 20.7-.3 12.1 8.5 21.7 19.9 21.7 5.6 0 13.1-4.3 20.6-11.8 11.9-11.9 13.2-23.9 3.3-29.6-4.3-2.5-14.6-2.9-22.1-1zM351.8 25.1c-9.2 1.9-19.1 5.9-22.6 9.2-8.7 8.1-8.6 21.9.2 32.4 4.7 5.6 14.2 8.3 21.1 6 4.7-1.6 13.7-8 19.8-14.2 20.4-20.6 10.1-39.3-18.5-33.4zM245 53.2c-22.3 2.3-62.4 22.9-98 50.4-21.2 16.4-48.8 45.5-65.7 69.4-11.4 16.1-26.6 43.4-33.3 60-1.2 3-2.9 7-3.7 8.8-4.8 10.8-14.7 45.9-16.8 59.2-.4 2.5-.9 5.4-1.1 6.5-.9 4.5-2.4 15.8-3.1 23.7-1.5 16.5-.9 59.1 1.1 70.8.3 1.4.7 4.3 1 6.5 1.2 8.6 1.8 11.5 4.7 24.8 13.1 60 44.6 116.7 89.4 161.1 5 4.9 20.4 18.7 24.1 21.6 1.1.8 4 3.1 6.4 5.1 18.5 14.7 52.3 34.3 73 42.3 4.1 1.6 9.3 3.7 11.5 4.7 8.8 3.8 39.7 12.7 49.5 14.3 1.9.3 4.6.8 6 1.1 1.4.2 3.6.7 5 1 1.4.2 4.8.7 7.5 1.1 2.8.3 5.8.8 6.8 1 9.5 1.8 55.4 2.6 69.7 1.2 8.7-.9 22.9-2.7 26-3.3 1.4-.3 5.9-1.2 10-2 54.7-10.7 109.8-38 151.4-75.1 38.1-33.8 63.7-69.1 84.9-116.4 4.2-9.4 12.8-33.4 14.2-39.6.2-1 1.6-6.4 3-11.9s2.7-11.1 3-12.5c.2-1.4.7-3.6.9-5 .3-1.4.8-4.1 1-6 .3-1.9.8-4.5 1-5.8.3-1.3.8-5 1.1-8.3.4-3.3.9-7 1.1-8.2.3-1.2.7-11.2.9-22.2.4-22.3-.4-28.7-5.7-41.2-11-26.6-36.5-46.3-64.3-49.8-16.6-2.1-31.7.5-47 8-19.3 9.6-34.1 26.4-40.9 46.8-3.3 9.9-3.7 12.8-5 36.2-2.3 39.9-19.2 77.3-48 106-20.6 20.5-45.9 35.4-72.1 42.5-9.3 2.5-9.1 2.5-21.5 4.4-8.9 1.4-38 1.5-45 .3-1.4-.3-5.5-1-9.1-1.6-8.1-1.3-24-5.9-25.3-7.2-.6-.5-1.7-.9-2.6-.9-2 0-18.4-7.9-26.5-12.8-26.7-16-51.5-43.7-64.2-71.7-6.4-13.9-11.4-30.2-12.9-42-.3-2.2-.9-5.6-1.3-7.5-1.1-5-1.1-33.6-.1-39 .5-2.5 1.1-6.4 1.3-8.5.3-2.2 1.7-8.7 3.2-14.5 7.6-28.9 22.2-53.9 43.6-75.1 14.1-14 28.6-24 48.3-33.3 26-12.3 37.9-24.5 48.7-50.1 1.8-4.5 4.1-17.8 4.2-25.1.7-49.1-41.2-87.2-90.3-82.2z"/><path d="M377.8 77.5c-4.6 1.2-10.3 3.1-12.8 4.2-14.6 6.5-18 23-7.4 35.9 6.8 8.5 16.9 10.1 26.8 4.5 7.5-4.3 19.6-15.9 22.8-21.7 5.8-10.8 3.6-19.9-5.7-23.4-5.4-2-14.9-1.8-23.7.5zM376.5 138.7c-19.4 3.3-28.7 10.5-28.9 22.3-.1 12.3 11.1 23.1 22.3 21.4 10.2-1.5 27.1-18.1 28.4-27.9.8-5.7-2.2-11.4-7.4-14-2.6-1.4-10.8-2.4-14.4-1.8z"/></svg>