<svg width="24" height="24" viewBox="0 0 24 24" fill="none" xmlns="http://www.w3.org/2000/svg">
<!-- 简洁的像素风格箭头 -->
<rect x="3" y="11" width="1" height="1" fill="currentColor"/>
<rect x="4" y="11" width="1" height="1" fill="currentColor"/>
<rect x="5" y="11" width="1" height="1" fill="currentColor"/>
<rect x="6" y="11" width="1" height="1" fill="currentColor"/>
<rect x="7" y="11" width="1" height="1" fill="currentColor"/>
<rect x="8" y="11" width="1" height="1" fill="currentColor"/>
<rect x="9" y="11" width="1" height="1" fill="currentColor"/>
<rect x="10" y="11" width="1" height="1" fill="currentColor"/>
<rect x="11" y="11" width="1" height="1" fill="currentColor"/>
<rect x="12" y="11" width="1" height="1" fill="currentColor"/>
<rect x="13" y="11" width="1" height="1" fill="currentColor"/>
<rect x="14" y="11" width="1" height="1" fill="currentColor"/>
<rect x="15" y="11" width="1" height="1" fill="currentColor"/>
<rect x="16" y="11" width="1" height="1" fill="currentColor"/>
<rect x="17" y="11" width="1" height="1" fill="currentColor"/>
<rect x="18" y="11" width="1" height="1" fill="currentColor"/>

<!-- 箭头头部 -->
<rect x="15" y="8" width="1" height="1" fill="currentColor"/>
<rect x="16" y="9" width="1" height="1" fill="currentColor"/>
<rect x="17" y="10" width="1" height="1" fill="currentColor"/>
<rect x="18" y="11" width="1" height="1" fill="currentColor"/>
<rect x="19" y="12" width="1" height="1" fill="currentColor"/>
<rect x="18" y="13" width="1" height="1" fill="currentColor"/>
<rect x="17" y="14" width="1" height="1" fill="currentColor"/>
<rect x="16" y="15" width="1" height="1" fill="currentColor"/>
<rect x="15" y="16" width="1" height="1" fill="currentColor"/>

<!-- 连接箭头头部 -->
<rect x="15" y="9" width="1" height="1" fill="currentColor"/>
<rect x="15" y="10" width="1" height="1" fill="currentColor"/>
<rect x="15" y="12" width="1" height="1" fill="currentColor"/>
<rect x="15" y="13" width="1" height="1" fill="currentColor"/>
<rect x="15" y="14" width="1" height="1" fill="currentColor"/>
<rect x="15" y="15" width="1" height="1" fill="currentColor"/>
</svg> 