<?xml version="1.0" encoding="UTF-8"?>
<!--Generator: Apple Native CoreSVG 326-->
<!DOCTYPE svg
PUBLIC "-//W3C//DTD SVG 1.1//EN"
       "http://www.w3.org/Graphics/SVG/1.1/DTD/svg11.dtd">
<svg version="1.1" xmlns="http://www.w3.org/2000/svg" xmlns:xlink="http://www.w3.org/1999/xlink" viewBox="0 0 59.2383 52.4805">
 <g>
  <rect height="52.4805" opacity="0" width="59.2383" x="0" y="0"/>
  <path d="M6.99219 47.168C6.99219 50.5664 8.94531 52.4805 12.3828 52.4805L46.543 52.4805C49.9805 52.4805 51.9336 50.5469 51.9336 47.168L51.9336 19.082L48.8477 18.6719L48.8477 46.6992C48.8477 48.4961 47.9492 49.4141 46.1914 49.4141L12.7344 49.4141C10.9766 49.4141 10.0781 48.4961 10.0781 46.6992L10.0781 18.6914L6.99219 19.082ZM0 24.3555C0 25.2148 0.625 25.8008 1.5625 25.8008C1.99219 25.8008 2.28516 25.6641 2.57812 25.4297L28.5156 3.67188C29.082 3.16406 29.7656 3.125 30.4102 3.67188L56.3086 25.4297C56.582 25.6641 56.875 25.8008 57.3047 25.8008C58.2422 25.8008 58.8672 25.2148 58.8672 24.3555C58.8672 23.7695 58.6523 23.3789 58.1641 22.9688L32.2852 1.21094C30.5273-0.273438 28.418-0.273438 26.6406 1.21094L0.703125 22.9688C0.214844 23.3789 0 23.7695 0 24.3555ZM46.1914 13.8867L51.9336 18.7305L51.9336 7.12891C51.9336 6.15234 51.2891 5.50781 50.3125 5.50781L47.832 5.50781C46.8555 5.50781 46.1914 6.15234 46.1914 7.12891Z" fill="#ff9500"/>
  <path d="M15.1367 41.2109C15.1367 43.2031 16.4062 44.3555 18.5352 44.3555L40.3906 44.3555C42.5195 44.3555 43.7695 43.2031 43.7695 41.2109L43.7695 21.8945L31.0547 11.2109C30.0586 10.4102 28.8281 10.4102 27.8711 11.2109L15.1367 21.875ZM18.2227 39.9414L18.2227 23.3789L28.7109 14.5898C29.1211 14.2383 29.7656 14.1992 30.2148 14.5898L40.6836 23.3984L40.6836 39.9414C40.6836 40.8203 40.2148 41.2891 39.3555 41.2891L19.5703 41.2891C18.7109 41.2891 18.2227 40.8203 18.2227 39.9414Z" fill="#ffba00"/>
  <path d="M23.3008 34.0234C23.3008 35.3906 24.1992 36.25 25.6055 36.25L33.3008 36.25C34.7266 36.25 35.625 35.3906 35.625 34.0234L35.625 25.957L30.8008 21.8945C29.9805 21.2109 28.9453 21.1719 28.125 21.8945L23.3008 25.957ZM26.3281 32.6758L26.3281 27.3438L28.9258 25.1367C29.2578 24.8633 29.668 24.8633 30 25.1367L32.5977 27.3438L32.5977 32.6758C32.5977 33.0469 32.4023 33.2617 32.0312 33.2617L26.8945 33.2617C26.5234 33.2617 26.3281 33.0469 26.3281 32.6758Z" fill="#ffd417"/>
 </g>
</svg>
