<?xml version="1.0" encoding="UTF-8"?>
<!--Generator: Apple Native CoreSVG 326-->
<!DOCTYPE svg
PUBLIC "-//W3C//DTD SVG 1.1//EN"
       "http://www.w3.org/Graphics/SVG/1.1/DTD/svg11.dtd">
<svg version="1.1" xmlns="http://www.w3.org/2000/svg" xmlns:xlink="http://www.w3.org/1999/xlink" viewBox="0 0 76.4648 57.7148">
 <g>
  <rect height="57.7148" opacity="0" width="76.4648" x="0" y="0"/>
  <path d="M63.4961 28.8477C63.4961 42.8906 52.0898 54.2773 38.0469 54.2773C34.3725 54.2773 30.88 53.4978 27.7346 52.0791C30.0688 49.3349 31.4844 45.7969 31.4844 41.9727C31.4844 40.675 31.3245 39.4126 31.0059 38.2107C33.1062 37.6515 35.4765 37.3242 38.0469 37.3242C45.8423 37.3242 51.7847 40.323 54.1996 43.4561C57.7153 39.6075 59.8438 34.4792 59.8438 28.8477C59.8438 16.7969 50.0977 7.05078 38.0469 7.05078C26.8717 7.05078 17.6785 15.432 16.416 26.2649C16.1958 26.2354 15.9695 26.2305 15.7422 26.2305C14.7141 26.2305 13.7076 26.3313 12.7342 26.5301C13.8941 13.5692 24.7862 3.39844 38.0469 3.39844C52.0898 3.39844 63.4961 14.8047 63.4961 28.8477ZM46.6602 23.5352C46.6602 28.9258 42.8906 33.0664 38.0469 33.0273C33.2031 32.9883 29.4531 28.9258 29.4336 23.5352C29.4141 18.457 33.2422 14.2383 38.0469 14.2383C42.8516 14.2383 46.6602 18.457 46.6602 23.5352Z" fill="black" fill-opacity="0.85"/>
  <path d="M15.7422 54.6094C22.5977 54.6094 28.3789 48.8867 28.3789 41.9727C28.3789 35.0391 22.6758 29.3359 15.7422 29.3359C8.82812 29.3359 3.10547 35.0586 3.10547 41.9727C3.10547 48.9258 8.82812 54.6094 15.7422 54.6094Z" fill="#007aff"/>
  <path d="M13.6133 48.6914C13.2422 48.6914 12.7734 48.5156 12.4609 48.1836L8.26172 43.5742C7.98828 43.2617 7.87109 42.8516 7.87109 42.5195C7.87109 41.6992 8.49609 41.0742 9.29688 41.0742C9.80469 41.0742 10.1758 41.3086 10.4297 41.582L13.5547 44.9609L19.707 36.4648C19.9805 36.0742 20.4102 35.8203 20.918 35.8203C21.6992 35.8203 22.3633 36.4453 22.3633 37.2461C22.3633 37.5195 22.2461 37.832 22.0508 38.125L14.8242 48.125C14.5703 48.4766 14.1406 48.6914 13.6133 48.6914Z" fill="white"/>
 </g>
</svg>
