<?xml version="1.0" encoding="UTF-8"?>
<!--Generator: Apple Native CoreSVG 326-->
<!DOCTYPE svg
PUBLIC "-//W3C//DTD SVG 1.1//EN"
       "http://www.w3.org/Graphics/SVG/1.1/DTD/svg11.dtd">
<svg version="1.1" xmlns="http://www.w3.org/2000/svg" xmlns:xlink="http://www.w3.org/1999/xlink" viewBox="0 0 48.6719 49.9414">
 <g>
  <rect height="49.9414" opacity="0" width="48.6719" x="0" y="0"/>
  <path d="M3.45703 32.2852L3.45703 6.17188C3.45703 4.25781 4.31641 3.45703 6.17188 3.45703L42.1094 3.45703C43.9844 3.45703 44.8438 4.25781 44.8438 6.17188L44.8438 32.2852C44.8438 34.1992 43.9844 35 42.1094 35L6.17188 35C4.31641 35 3.45703 34.1992 3.45703 32.2852Z" fill="#007aff"/>
  <path d="M9.72656 27.9297L21.543 27.9297C22.0117 27.9297 22.3828 27.5977 22.3828 27.0703C22.3828 26.5625 22.0117 26.25 21.543 26.25L9.72656 26.25C9.21875 26.25 8.84766 26.5625 8.84766 27.0703C8.84766 27.5977 9.21875 27.9297 9.72656 27.9297ZM9.72656 23.6914L26.2891 23.6914C26.7969 23.6914 27.1289 23.3594 27.1289 22.8125C27.1289 22.3242 26.7969 22.0117 26.2891 22.0117L9.72656 22.0117C9.21875 22.0117 8.84766 22.3242 8.84766 22.8125C8.84766 23.3594 9.21875 23.6914 9.72656 23.6914ZM10.0195 13.4766C10.6641 13.4766 11.1719 12.9492 11.1719 12.3242C11.1719 11.6797 10.6641 11.1328 10.0195 11.1328C9.375 11.1328 8.84766 11.6797 8.84766 12.3242C8.84766 12.9492 9.375 13.4766 10.0195 13.4766ZM10.0195 18.0078C10.6641 18.0078 11.1719 17.4805 11.1719 16.8359C11.1719 16.2109 10.6641 15.6641 10.0195 15.6641C9.375 15.6641 8.84766 16.2109 8.84766 16.8359C8.84766 17.4805 9.375 18.0078 10.0195 18.0078ZM13.0664 14.4531C13.0664 15.9961 13.8867 17.5195 14.668 18.1836C14.8438 18.3398 15.0586 18.418 15.293 18.418C15.6836 18.418 15.9766 18.125 15.9766 17.7344C15.9766 17.4414 15.8398 17.2852 15.6445 17.0703C14.9023 16.3086 14.5703 15.4297 14.5703 14.4531C14.5703 13.4766 14.9414 12.6367 15.6445 11.8555C15.8398 11.6211 15.9766 11.4648 15.9766 11.1719C15.9766 10.7812 15.6836 10.4883 15.293 10.4883C15.0781 10.4883 14.8438 10.5859 14.668 10.7422C13.7109 11.543 13.0664 12.9297 13.0664 14.4531Z" fill="white"/>
  <path d="M38.3984 40.293C37.5 40.293 36.7188 39.5117 36.7188 38.5742C36.7188 37.6758 37.5 36.8945 38.3984 36.8945C39.3555 36.8945 40.1172 37.6758 40.1172 38.5742C40.1172 39.5117 39.3555 40.293 38.3984 40.293Z" fill="#ff9500"/>
  <path d="M0 36.582C0 40.7031 2.03125 42.6953 6.07422 42.6953L42.2266 42.6953C46.2695 42.6953 48.3008 40.7031 48.3008 36.582L48.3008 6.11328C48.3008 1.97266 46.25 0 42.1875 0L6.11328 0C2.05078 0 0 1.97266 0 6.11328ZM3.45703 32.2852L3.45703 6.17188C3.45703 4.25781 4.31641 3.45703 6.17188 3.45703L42.1094 3.45703C43.9844 3.45703 44.8438 4.25781 44.8438 6.17188L44.8438 32.2852C44.8438 34.1992 43.9844 35 42.1094 35L6.17188 35C4.31641 35 3.45703 34.1992 3.45703 32.2852ZM38.3984 40.293C37.5 40.293 36.7188 39.5117 36.7188 38.5742C36.7188 37.6758 37.5 36.8945 38.3984 36.8945C39.3555 36.8945 40.1172 37.6758 40.1172 38.5742C40.1172 39.5117 39.3555 40.293 38.3984 40.293ZM24.1406 45.6641C31.3281 45.6641 36.7969 44.1016 38.5938 41.543L9.70703 41.543C11.5039 44.1016 16.9727 45.6641 24.1406 45.6641ZM12.3047 49.2969L35.9961 49.2969C37.9297 49.2969 38.0859 47.1289 36.7773 46.543L30.7031 43.6328L17.5977 43.6328L11.5234 46.543C10.2148 47.1289 10.3711 49.2969 12.3047 49.2969Z" fill="#f7d7a7"/>
 </g>
</svg>
